<svg width="32.08mm" height="12.35mm" version="1.1" viewBox="0 0 32.08 12.35" xmlns="http://www.w3.org/2000/svg">
<g transform="translate(-54.98 -234.5)">
<g transform="translate(18.64 15.71)" stroke-width=".2646px" aria-label="Type">
<path d="m40.12 218.9c-1.171 0-2.342-0.2822-3.514 0 0 0.889-0.3104 2.06 0 2.935 0 0.2963-0.5927 0.889 0 1.171 0 0 0.2822 0 0.2822-0.2822 0.2963-0.889 0.2963-2.06 0.2963-3.231h2.342v7.041h0.2963c-0.2963 0.2822 0 0.8608-0.2963 0.8608h-2.342c0 0.3104 0 0.3104 0.2822 0.5927h4.981l0.2963-0.2822c0-0.3104-0.2963-0.3104-0.5786-0.5927-0.5927 0-1.482 0.2822-2.046 0.2822 0.2822-1.171 0-2.046 0.2822-2.921-0.2822-1.157 0-2.046-0.2822-3.217 0.2822-0.5927 0-1.185 0.2822-1.764 0.8749 0 1.764-0.2822 2.342 0-0.2963 0.889 0.2963 2.06 0 3.231 0 0 0.2963 0.2822 0.5927 0.2822 0.2822-0.2822 0.2822-0.8749 0.2822-1.171-0.2822-0.8749 0-2.342-0.2822-2.935z"/>
<path d="m52.43 221.4c0-0.3104-0.3104-0.3104-0.889-0.3104h-2.441c-0.3104 0.9313 0.2963 0.9313 0.9172 1.228 0 0.6068-0.3104 1.228-0.6209 1.806 0.3104 0.3104-0.6068 0.6209-0.2963 0.9313 0 0.2963 0 0.9031-0.3104 0.9031-0.9172-1.214-0.9172-2.413-1.834-3.641v-0.2963h0.9172c0.3104-0.3104 0.3104-0.6209 0-0.9313h-3.02c-0.3104 0-0.6209 0.3104-0.3104 0.6209 0 0.9031 0.9031 0.3104 1.214 0.3104 0.6068 0.2963 0.9172 0.9031 0.9172 1.524 0.2822 0.5786 0.5927 1.199 0.9031 2.103 0.2963 0.6209 0.9031 0.9172 0.9031 1.538-0.2963 0.9031-0.6068 1.51-0.9031 2.413-0.3104 0.6209-0.9031 0.6209-1.51 0.3104l-0.2963-0.2963c0.2963 0.254 0.2963-0.6209 0.5927-0.6209 0-0.2963-0.2963-0.5927-0.2963-0.5927-0.3104-0.3104-0.6209 0-0.9313-0.3104-0.5927 0.6068-0.2822 1.214-0.2822 1.51 0 0.6209 0.2822 0.9313 0.5927 1.214 0.6209 0.6209 1.51 0 2.131 0.3104 0.2963-0.5927 0.9031-0.5927 1.214-1.214 0-2.117 0.9172-3.641 1.524-5.475 0.2963-0.6209 0.2963-1.82 0.6068-2.413 0.6209 0 0.9172 0.2963 1.51 0.2963 0-0.2963 0.3104-0.6068 0-0.9172z"/>
<path d="m56.08 220.8c-0.889 0-1.496-0.2963-2.385-0.2963-0.2963 0-0.2963 0.5927-0.2963 0.889 0 0.9031 1.185 0.2963 1.792 0.5927v7.451h-0.9031c-0.2963-0.2963-0.889 0-1.185 0.5927 0.2963 0.2963 0.889 0.2963 1.185 0.2963 0.2963 0.2963 0.6068-0.2963 1.199 0 0.889-0.2963 1.778 0.5927 2.667 0 0-1.496-1.482-0.5927-2.074-0.889 0-1.199-0.2963-2.088 0-2.977l0.889 0.889c0.5927-0.2963 0.889 0.5927 1.185 0.2963 0.9031 0 1.496-0.2963 2.088-0.889 0.889-1.185 0.889-3.274 0.2963-4.459 0-0.9031-0.889-1.199-1.482-1.496-1.199-0.2963-2.088 0-2.681 0.889-0.2963-0.2963-0.2963-0.5927-0.2963-0.889zm2.977 1.496c0 0.5927 0.889 0.5927 0.889 1.185 0.2963 0.5927 0 1.185 0 1.482-0.2963 0.6068 0 0.9031-0.5927 1.199-0.2963 0.5927-0.889 0.2963-1.496 0.5927-0.889-0.2963-0.889-1.496-1.778-2.088 0-0.2963 0-0.5927 0.2963-0.5927-0.2963-0.2963-0.2963-0.5927 0-0.889 0.5927-0.2963 0.5927-1.199 1.185-1.199 0.2963-0.5927 0.5927 0 0.9031-0.2963z"/>
<path d="m68.35 222.9c-0.6068-1.51-2.131-2.413-3.951-2.413-1.214 0.3104-2.117 1.51-2.413 2.723 0 0.6068-0.3104 0.9172-0.3104 1.228 0 1.199 0.9031 1.806 1.51 2.723 0.9172 0.9031 2.738 0.5927 3.655 0.3104 0.5927-0.6209 1.199-0.9172 1.199-1.524 0-0.3104-0.2963-0.6068-0.6068-0.6068-0.5927 0.9031-1.51 1.51-2.723 1.51-0.3104-0.2963-0.9031-0.2963-1.214-0.9031 0-0.6068-0.9172-0.9172-0.3104-1.51 0.6209 0 1.214-0.3104 2.131 0 0.9031-0.3104 1.82-0.3104 2.723 0 0.6209-0.3104 0.3104-0.9172 0.3104-1.538zm-1.214 0.3104c-1.214 0.3104-2.738 0.3104-3.951 0.3104 0-0.9031 0.9172-0.9031 1.214-1.524 0.6068-0.6068 1.524 0 2.131 0.3104 0.3104 0 0.6068 0.5927 0.6068 0.9031z"/>
</g>
</g>
</svg>
