<svg width="500.8" height="500.8" version="1.1" xmlns="http://www.w3.org/2000/svg">
<path d="m464.9 172.8-70.01 25.32a153.8 153.8 0 0 1 9.301 52.26 153.8 153.8 0 0 1-10.09 54.28l68.13 25.74 29.65-15.31c11.91-44.43 11.91-84.98 0-129.4z" fill="#f00"/>
<path d="m315.1 8.928-19.15 9.859-15.88 80.76a153.8 153.8 0 0 1 86.87 50.79l59.64-51.22 0.5918-25.48c-32.53-32.53-67.64-52.8-112.1-64.71z" fill="#ff0"/>
<path d="m427.2 73.63-68.1 68.1a153.8 153.8 0 0 1 39.81 68.89l92.99-24.92c-11.91-44.43-32.18-79.55-64.71-112.1z" fill="#ff8000"/>
<path d="m185.7 8.928c-44.43 11.91-79.55 32.18-112.1 64.71l-0.4824 25.62 60.27 51.39a153.8 153.8 0 0 1 90.07-51.62l-13.59-76.41z" fill="#0f0"/>
<path d="m250.4 0c-21.24 0-42.49 2.975-64.71 8.928l24.92 92.99a153.8 153.8 0 0 1 39.79-5.301 153.8 153.8 0 0 1 39.76 5.416l24.95-93.1c-22.22-5.953-43.46-8.928-64.71-8.928z" fill="#80ff00"/>
<path d="m33.87 171.2-24.94 14.49c-11.91 44.43-11.91 84.98 0 129.4l22.89 10.75 73.39-25.33a153.8 153.8 0 0 1-8.588-50.12 153.8 153.8 0 0 1 9.535-52.76z" fill="#0ff"/>
<path d="m73.63 73.63c-32.53 32.53-52.8 67.64-64.71 112.1l93.1 24.95a153.8 153.8 0 0 1 39.7-68.92z" fill="#00ff80"/>
<path d="m131.7 348-55.37 45.52-2.691 33.65c32.53 32.53 67.64 52.8 112.1 64.71l24.41-12.7 13.64-77.46a153.8 153.8 0 0 1-92.06-53.72z" fill="#00f"/>
<path d="m101.9 290.2-92.99 24.92c11.91 44.43 32.18 79.55 64.71 112.1l68.1-68.1a153.8 153.8 0 0 1-39.81-68.89z" fill="#0080ff"/>
<path d="m366.7 350.9a153.8 153.8 0 0 1-88.59 50.69l13.89 75.81 23.12 14.46c44.43-11.91 79.55-32.18 112.1-64.71l-2.248-25.92z" fill="#f0f"/>
<path d="m210.7 398.8-24.95 93.1c44.43 11.91 84.98 11.91 129.4 0l-24.92-92.99a153.8 153.8 0 0 1-39.79 5.301 153.8 153.8 0 0 1-39.76-5.416z" fill="#8000ff"/>
<path d="m398.8 290.2a153.8 153.8 0 0 1-39.7 68.92l68.1 68.1c32.53-32.53 52.8-67.64 64.71-112.1z" fill="#ff0080"/>
</svg>
