<svg width="79.93mm" height="21.01mm" version="1.1" viewBox="0 0 79.93 21.01" xmlns="http://www.w3.org/2000/svg">
<g transform="rotate(8.497 123.4 25.96)">
<g transform="translate(-35.29,-218.2)" fill-rule="evenodd">
<path d="m110.3 227.4c-0.9937 0.1828-2.57-0.2774-3.089 0.6945-0.481 2.043-0.9741 4.238-1.528 6.164-0.8537-0.8808-1.094-2.539-2.032-3.095-1.231 0.221-3.23-0.4414-3.496 1.287-0.4705 0.7563-0.6728 2.1-1.43 2.455-0.8841-2.131-1.469-4.42-2.026-6.66-1.175-0.8233-2.725 0.0718-3.997 0.2775-0.8771 0.9498 0.3227 2.342 0.402 3.388 1.263 4.053 1.829 8.263 2.965 12.36 1.41-0.2108 3.535 0.6367 4.109-1.123 1.019-2.223 1.028-4.748 1.934-7.005 0.797 2.408 1.156 4.939 2.024 7.328 1.239-0.0546 2.847 0.7536 3.895-0.1685 0.876-1.394 0.6433-3.205 1.258-4.721 0.7608-3.655 2.019-7.233 2.563-10.92 0.0938-0.5441-1.129-0.1648-1.552-0.2615z" fill="#ff0"/>
<path d="m82.71 230.6c-1.779 0.7387-3.885 1.06-5.324 2.42-0.4036 4.857-1.136 9.712-1.119 14.59 0.7654 0.9625 2.3 0.0437 3.323 0.2238 0.7093-0.1324 2.072 0.2203 1.786-0.879-0.03082-1.686-0.1154-3.496 0.05736-5.102 0.9323-0.1334 2.263-1.013 2.972-0.3654 0.8174 1.323 1.54 2.739 2.577 3.896 1.522-0.3557 2.873-1.29 4.002-2.34-2.463-3.997-5.202-7.842-7.538-11.91-0.2216-0.4736-0.01863-1.008-0.7369-0.5374zm-1.111 5.076c0.6929 0.635 1.275 1.73 1.353 2.521-0.6147 0.1468-2.013 1.091-1.611-0.2165 0.07221-0.7035-0.04556-1.783 0.2574-2.305z" fill="#00e900"/>
<path d="m42.54 236.2c-1.428-0.1359-1.611 0.9432-1.58 2.196-0.5402 4.67-1.017 9.35-1.593 14.02 3.16 1.04 6.685 0.2828 9.252-1.795 2.175-1.28 2.919-3.988 2.849-6.378-0.6076-2.173-1.203-4.63-2.904-6.223-1.767-1.188-3.952-1.579-6.023-1.816zm2.583 6.178c2.008 0.5283 2.615 3.835 0.5219 4.704-0.439 0.1415-1.875 1.154-1.498-0.0388 0.2142-1.528 0.07999-3.344 0.6868-4.66 0.09627-7e-3 0.1929-0.0102 0.2894-6e-3z" fill="#ff0a0a"/>
</g>
<path d="m26.31 14.6c-2.938 0.395-5.585 2.059-7.89 3.824-0.4013 1.171 0.9062 2.175 1.244 3.234 2.017 3.531 3.904 7.189 6.206 10.53 1.004 0.2462 1.876-0.9123 2.856-1.129 0.6298-0.2949 2.052-0.6415 1.362-1.563-0.631-1.301-1.532-2.55-1.995-3.885 2.294 0.3618 4.425 1.296 6.665 1.817 1.087-0.6751 0.9487-2.393 1.604-3.441 0.7963-1.378-1.82-0.9935-2.663-1.538-0.7812-0.3513-2.185-0.3121-2.572-0.9292 0.4268-1.818 0.8247-4.109-0.8082-5.474-1.078-0.9968-2.525-1.602-4.009-1.445zm-0.5653 3.542c1.308 0.4182 0.4736 2.448-0.4749 2.666-0.3791-0.6146-1.104-1.471-0.9751-2.114 0.4265-0.2872 0.9147-0.5857 1.45-0.5529z" fill="#3554ff" fill-opacity=".9798" fill-rule="evenodd"/>
<g transform="rotate(-8.777 -1439 120.8)" stroke-width=".2646px" aria-label="DRAW">
<path d="m5.982 239.6q6.754 1.964 6.754 4.217 1.209 2.889 1.209 5.307 0 3.514-4.827 8.563-2.548 1.447-4.341 1.447h-1.69q-1.271 0-5.788-1.447-1.085 0-1.085-0.4806l4.46-14.84q3.374-2.77 4.103-2.77zm-0.9612 0.8423-3.984 14.71q2.005 0.8475 3.498 0.8475 3.354 0 6.754-2.413 1.809-2.63 1.809-4.703-0.7235-4.992-1.809-5.912-1.586-1.499-5.307-2.532zm-1.69 0.9664 0.1189 0.5994-0.2377 0.3617q0 0.1757 0.3617 0.3617l0.3617-1.685zm-1.933 3.256v0.1189h0.124q0.8165-0.3617 1.328-0.3617h0.2377q0-0.1085 0.2429-1.204-1.55 1.256-1.933 1.447zm-1.085 2.052q1.044-0.739 1.085-0.9664-1.085 0.2584-1.085 0.9664zm1.209 0.2377h0.1189q0.9663-0.2946 0.9663-0.7235v-0.2377q-0.5839 0.2739-1.085 0.9612zm5.426-1.085h0.3617q1.416 0 2.17 2.17l0.1189 0.8475q0 2.677-3.617 3.132h-0.2377q-0.1912 0-0.4858-0.4806 1.173-5.256 1.69-5.669zm0.3617 0.9664q-0.8423 3.736-1.085 4.222h0.1189q2.294-0.2791 2.294-1.933v-0.8423q0-0.8423-1.085-1.447zm-6.511 2.413h0.1189q0.06201 0 0.4806-0.124 0.2377 0.124 0.3669 0.124 0.2377-0.5581 0.2377-1.085-1.204 0.894-1.204 1.085zm-2.17 2.894q1.447-1.256 1.447-1.571-1.447 0.4806-1.447 1.571zm0.8423 0.4806h0.1189q1.69-0.4548 1.69-1.566l0.1189-0.4858q-0.1344 0-1.928 2.052zm-1.204 0.7235-0.3617 1.085q1.183-0.6356 1.204-0.8423-0.5633 0-0.8423-0.2429zm-0.7235 2.894q2.894-1.452 2.894-2.289v-0.124q-3.018 1.886-3.018 2.413zm0.5994 0.6046q0.04134 0.2429 0.2429 0.2429h0.3617q1.623-1.085 1.928-1.085v-0.2429q-0.3617 0-0.3617-0.1189zm9.049-0.3617v0.1189q0.186 0 0.4806 0.2429 0.1809-0.3979 1.69-0.9664v-0.1189h-0.124q-1.685 0.7235-2.046 0.7235zm-5.188 0-0.3617 0.7235h0.124q0.9612-0.4134 0.9612-0.6046zm4.103 0.2429v0.1189h0.2377q0.2377-0.1189 0.3617-0.1189v-0.124h-0.2377q-0.2377 0.124-0.3617 0.124zm-6.392 0.8423 0.8423 0.1188 0.2429-0.8423q-1.085 0.5736-1.085 0.7235zm4.46-0.7235v0.3617q0.3927-0.2429 0.6046-0.2429v-0.1188zm-2.17 1.328h0.4858q0.1809 0 0.3617-0.4858h-0.124q-0.7235 0.2842-0.7235 0.4858zm2.17 0v0.1189h0.7235q-0.1189-0.2326-0.1189-0.3617-0.3927 0.2429-0.6046 0.2429z"/>
<path d="m24.84 239.1q4.103 0 5.307 3.86 0.1189 0.6356 0.1189 1.209 0 0.5684-0.7235 3.013 5.08 1.974 5.307 2.651-0.77 1.375-3.013 6.392-0.3927 0.2429-0.6046 0.2429l-3.979-1.571v0.7286q-0.6408 2.894-1.085 2.894-1.096 0.7493-5.426 1.566h-0.1189q-0.8992 0-1.209-1.809-2.289-4.837-4.222-11.7-0.1189 0-0.4806-1.204 1.416-3.147 1.928-3.617 5.142-2.656 8.201-2.656zm-7.596 3.498q2.134 6.232 5.307 13.87 1.891-0.7235 3.86-1.204v-0.124q-1.571-4.31-1.571-4.46 0.2429-0.3927 0.2429-0.6046h0.3617q3.318 1.24 6.274 2.894h0.1189q0-0.1705 1.69-3.137-3.958-1.716-5.069-2.289v-0.3617q0.7596-1.845 0.9663-3.256 0-2.346-2.894-3.741-1.075-0.1447-1.328-0.2377-3.09 0-7.839 2.408zm6.392-0.2429h0.4806q0.9663 0 1.209 1.328 0 1.519-1.933 2.413-0.5994 0-1.323-2.775v-0.1189q0-0.4444 1.566-0.8475zm-0.6046 1.209q0.2429 0.3617 0.4858 1.447 0.5013-0.124 0.9612-1.085-0.2429-0.7235-0.4806-0.7235-0.9663 0.0724-0.9663 0.3617zm-6.511 0.1188q-0.7235 1.225-0.7235 1.447 0.155 0 0.9663-0.9612v-0.2429q0-0.2429-0.2429-0.2429zm0.3617 3.137q0.7235-0.4548 0.7235-0.6046-0.2429-0.3927-0.2429-0.5994-0.2687 0-0.4806 1.204zm1.204 0.9664q0 0.1809-0.2377 1.085 0.186 0 0.4806-0.4858l-0.1189-0.5994zm-1.323 0.5994v0.6046h0.2377v-0.3617l0.124-0.6046q-0.1757 0-0.3617 0.3617zm2.17 1.69q-0.2429 1.256-0.3617 1.566h0.1189q0-0.1137 0.6046-0.8423-0.2429-0.4909-0.2429-0.7235zm-1.209 0.7235-0.1189 0.6046v0.1189h0.1189l0.124-0.6046v-0.1188zm9.41 0.9664v0.5994q0.186 0 0.4806-0.4806l-0.2429-0.1188zm-7.24 0.7235q0 0.5219-0.2377 0.9612h0.1189q0-0.186 0.4858-0.4806-0.186-0.4806-0.3669-0.4806zm9.891 0.4806v0.6046h0.1189q0-0.1912 0.2429-0.4858l-0.2429-0.1188zm-11.09 0.1188q0 0.1912-0.2429 0.4858v0.1189q0.04134 0.2429 0.2429 0.2429l0.1189-0.7235v-0.124zm12.42 1.69q0 0.2739-0.6046 0.3617l-0.4806-0.2429v0.124l0.9612 0.4806 0.2429-0.7235zm-11.82 0.7235 0.1189 0.6046h0.1189q0-0.093 0.124-0.7235-0.2325 0.1188-0.3617 0.1188zm6.149 0.8475v0.3617q0.2997 0 0.6046 0.2377 0-0.0879 0.1189-0.7235h-0.1189q-0.2015 0.124-0.6046 0.124zm-3.979 0.2377q0 0.6563-0.4806 0.9664h-0.3617l-0.3617-0.2429q0 0.1292-0.124 0.3617 0.2429 1.085 0.4858 1.085 0-0.5116 1.085-1.809v-0.1188q0-0.2429-0.2429-0.2429zm0.7235 1.085q-0.4082 0.5271-0.8423 1.447h0.3617q0-0.3617 0.5994-1.447zm2.289 0-0.2377 0.7235q0.2325-0.1188 0.3617-0.1188v-0.6046z"/>
<path d="m46.78 240.1q0.5426 0 1.209 2.413 1.928 3.86 5.307 11.94 0 0.77-2.413 3.741l-1.69 0.3617q-2.682 0-3.256-2.17-1.328-3.256-1.566-4.584h-0.6046v0.1188q-0.6873 5.788-1.085 5.788-0.1189 0-2.052 2.17-5.426-0.7493-5.426-1.204v-0.4806q0.7235-7.204 2.413-13.63 0.09302 0 3.013-3.018 2.052-0.6046 6.149-1.447zm-8.682 16.28 0.6046 0.1189q1.354 0 3.498 0.2429 0.2377-2.331 0.8423-5.55 0-0.3307 3.617-0.4806 0.3617 0.3979 1.328 3.132 0.1912 0.0362 0.7235 1.452 1.106 0 3.498-1.328l-4.827-10.86q-0.7235-1.473-0.7235-2.046-5.307 0.9095-5.307 1.447-3.256 12.47-3.256 13.87zm0.4806-11.46q1.571-0.4858 1.571-1.209l0.1189-0.4806q-0.1757 0.0258-1.69 1.69zm5.912-0.124q1.101 0 1.809 3.498 0 0.3617-2.413 0.6046-0.4806-0.1809-0.4806-0.3617 0.5633-3.741 1.085-3.741zm0.2429 1.447-0.3617 1.69q0.9612-0.0775 0.9612-0.2429-0.2377-0.3617-0.4806-1.447zm-6.274 1.085q0.9663-0.1447 0.9663-0.9612h-0.124q-0.4496 0.2687-0.8423 0.9612zm9.167 7.839q-0.6046 1.121-0.6046 1.447 0.03617 0.2429 0.2429 0.2429 0.5994-1.121 0.5994-1.447 0-0.2429-0.2377-0.2429zm-10.37 0.2429q-0.5684 1.447-1.085 1.447v0.4806q1.204-0.8423 1.204-1.809v-0.1188zm10.61 2.052h0.124q0.08785 0 0.9612-1.328h-0.2377q-0.1705 0.0103-0.8475 1.328zm3.137-0.9664-0.6046 0.8423h0.2429q0-0.2377 0.4806-0.8423zm-13.51 0.7235-0.9612 1.085h0.2377q0.8475-0.9664 1.085-0.9664v-0.1189z"/>
<path d="m59.45 239.5q1.69 0 1.69 0.4858 0 1.747 0.7235 6.63 0.4392-0.2429 1.928-2.894l0.6046-0.1188q3.617 0.2894 3.617 0.8423 0.7596-2.775 1.928-2.775 0.04134-0.0775 1.571-0.8423 4.703 0.4341 4.703 1.328v0.2377q-1.209 3.132-4.827 11.34-0.9147 3.912-3.137 5.55-4.46 0-4.46-0.9663 0-0.3514-0.4806-4.584h-0.124q-0.3514 1.819-2.77 4.222-0.4496 0.7235-1.69 0.7235-3.498-0.2894-3.498-1.085-0.4806-4.821-0.7235-15.07 0.9663-1.483 1.447-2.775l0.2429-0.1189q0.3101 0 3.256-0.124zm-2.532 0.9664-0.124 0.2429v0.5994q0.7493 4.02 1.085 11.58 0.1499 2.775 0.2429 2.775 2.362 0.3617 2.656 0.3617 1.039-0.4289 2.77-5.55 0.832-1.881 1.209-2.17h0.3617q0.4082 0 0.7235 5.426l0.3617 2.413q2.253 0.6046 2.651 0.6046 0.832 0 1.204-1.933l4.584-10.98q0.6046-1.349 0.6046-1.566-1.912-0.3617-3.617-0.3617-0.7235 1.964-2.532 6.149l-0.3617 0.2429h-0.124q-0.4754 0-1.566-3.498-2.134-0.2377-2.651-0.2377-1.669 2.718-2.294 3.256h-0.2377q-0.8475 0-0.8475-1.447-0.7235-3.442-0.7235-5.793-0.4909-0.2377-0.7235-0.2377-1.809 0.1189-2.651 0.1189zm-1.085 1.447q-0.4858 0.9302-0.4858 1.204 0.1809-0.1189 0.7235-0.1189l-0.1189-1.085zm0.1189 3.137h0.4806l-0.1189-0.6046q-0.2739 0-0.3617 0.6046zm0.4806 1.928q-0.3617 0.8733-0.3617 0.9664h0.124l0.4806-0.1189v-0.8475zm-0.8423 2.17v0.4858h0.2429q0-0.1912 0.2377-0.4858v-0.1189h-0.1189q-0.2325 0.1189-0.3617 0.1189zm1.328 5.912q0 0.1499-0.9663 0.8423l0.1189 1.085h0.124q0.1499 0 0.9612-0.9612v-0.7235q0-0.2429-0.2377-0.2429zm7.596 0.9664v0.7235q0.03617 0.2377 0.2429 0.2377 0.186 0 0.4806-0.4806v-0.1189l-0.1189-1.209q-0.1447 0-0.6046 0.8475zm-5.426 1.685h0.2377q0.5271-0.2946 0.7286-0.8423h-0.3669q-0.1912 0-0.5994 0.8423zm5.907 0.3617v0.124h0.3617q0-0.2067 1.085-1.085-0.2377 0-0.2377-0.124-0.3256 0-1.209 1.085zm2.775-0.5994v0.1189l0.2429 0.3617-0.2429 0.4806h0.1189l0.7235-0.8423z"/>
</g>
</g>
</svg>
